<?xml version="1.0" encoding="utf-8"?>
<!-- Generator: Adobe Illustrator 15.0.0, SVG Export Plug-In . SVG Version: 6.00 Build 0)  -->
<!DOCTYPE svg PUBLIC "-//W3C//DTD SVG 1.1//EN" "http://www.w3.org/Graphics/SVG/1.1/DTD/svg11.dtd">
<svg version="1.1" id="Layer_1" xmlns="http://www.w3.org/2000/svg" xmlns:xlink="http://www.w3.org/1999/xlink" x="0px" y="0px"
	 width="42px" height="42px" viewBox="0 0 42 42" enable-background="new 0 0 42 42" xml:space="preserve">
<path fill="#FFFFFF" d="M12.246,8.644c0,1.89-1.396,3.42-3.691,3.42c-2.16,0-3.555-1.53-3.555-3.42c0-1.935,1.442-3.421,3.646-3.421
	C10.85,5.223,12.201,6.709,12.246,8.644 M5.182,14.766h6.84v22.009h-6.84V14.766z M16.116,21.787c0-2.746-0.09-5.041-0.181-7.021
	h5.94l0.317,3.063h0.135c0.898-1.442,3.105-3.557,6.796-3.557c4.5,0,7.876,3.016,7.876,9.497v13.009h-6.841V24.578
	c0-2.834-0.992-4.771-3.467-4.771c-1.89,0-3.013,1.306-3.509,2.565c-0.182,0.449-0.227,1.08-0.227,1.711v12.693h-6.841V21.787z"/>
</svg>
