<?xml version="1.0" encoding="utf-8"?>
<!-- Generator: Adobe Illustrator 15.0.0, SVG Export Plug-In . SVG Version: 6.00 Build 0)  -->
<!DOCTYPE svg PUBLIC "-//W3C//DTD SVG 1.1//EN" "http://www.w3.org/Graphics/SVG/1.1/DTD/svg11.dtd">
<svg version="1.1" id="Layer_1" xmlns="http://www.w3.org/2000/svg" xmlns:xlink="http://www.w3.org/1999/xlink" x="0px" y="0px"
	 width="42px" height="42px" viewBox="0 0 42 42" enable-background="new 0 0 42 42" xml:space="preserve">
<path fill="#FFFFFF" d="M37,11.076c-1.177,0.521-2.441,0.875-3.771,1.034c1.356-0.813,2.397-2.1,2.888-3.633
	c-1.269,0.752-2.675,1.299-4.169,1.594c-1.197-1.276-2.904-2.074-4.793-2.074c-3.625,0-6.564,2.939-6.564,6.564
	c0,0.516,0.057,1.017,0.17,1.497c-5.457-0.274-10.294-2.888-13.531-6.859c-0.565,0.97-0.89,2.098-0.89,3.301
	c0,2.278,1.159,4.287,2.92,5.464c-1.075-0.034-2.088-0.329-2.973-0.821c-0.001,0.027-0.001,0.056-0.001,0.082
	c0,3.182,2.263,5.835,5.267,6.438c-0.551,0.149-1.131,0.229-1.729,0.229c-0.424,0-0.834-0.041-1.235-0.116
	c0.835,2.607,3.261,4.506,6.133,4.559c-2.247,1.761-5.077,2.81-8.153,2.81c-0.53,0-1.053-0.03-1.566-0.092
	c2.904,1.863,6.355,2.95,10.063,2.95c12.078,0,18.681-10.004,18.681-18.679c0-0.285-0.007-0.568-0.019-0.851
	C35.007,13.549,36.12,12.392,37,11.076"/>
</svg>
