<?xml version="1.0" encoding="utf-8"?><svg version="1.1" id="Layer_1" xmlns="http://www.w3.org/2000/svg" xmlns:xlink="http://www.w3.org/1999/xlink" x="0px" y="0px" viewBox="0 0 42 42" style="enable-background:new 0 0 42 42;" xml:space="preserve"><style type="text/css">.st0{fill:#FFFFFF;}</style><g><path id="XMLID_2_" class="st0" d="M1,20.4C1.1,13.9,7,8.3,13.5,8.5c3.1-0.1,6,1.2,8.4,3.1c-1,1.1-2.1,2.3-3.2,3.3c-2.8-2-6.9-2.5-9.7-0.3c-4.1,2.8-4.3,9.4-0.3,12.5c3.8,3.5,11,1.7,12-3.5c-2.4,0-4.8,0-7.2-0.1c0-1.4,0-2.8,0-4.3c4,0,8,0,12,0c0.2,3.3-0.2,6.9-2.3,9.7c-3.1,4.4-9.4,5.7-14.2,3.8C4.1,30.8,0.6,25.6,1,20.4z"/><path id="XMLID_1_" class="st0" d="M32.7,14.8c1.4,0,2.8,0,4.1,0c0,1.4,0,2.8,0,4.2c1.4,0,2.8,0,4.2,0c0,1.4,0,2.8,0,4.1c-1.4,0-2.8,0-4.2,0c0,1.4,0,2.8,0,4.2c-1.4,0-2.8,0-4.1,0c0-1.4,0-2.8,0-4.1c-1.4,0-2.8,0-4.2,0c0-1.4,0-2.8,0-4.1c1.4,0,2.8,0,4.2,0C32.7,17.5,32.7,16.1,32.7,14.8z"/></g></svg>