<?xml version="1.0"?>
<svg xmlns="http://www.w3.org/2000/svg" viewBox="0 0 64 64" width="512" height="512"><path d="m25.948 32.418-5.211-4.41-.157-.132a7.943 7.943 0 0 1 -2.7-3.819 15.843 15.843 0 0 1 -.473-4.651 2 2 0 0 1 2-2 15.9 15.9 0 0 1 4.643.47 7.949 7.949 0 0 1 3.827 2.7l3.015 3.564 3.108-4.14a16.84 16.84 0 0 0 -14.758-10.512l-6.942-.331a3 3 0 0 0 -3.143 3.143l.22 4.623.111 2.323a16.814 16.814 0 0 0 10.512 14.754l-2.173 1.63-1.027.77a12.042 12.042 0 0 0 -1.256 1.1c-.033.034-.063.069-.1.1a11.988 11.988 0 0 0 -1.04 1.216 11.816 11.816 0 0 0 -.858 1.319c-.046.08-.093.157-.137.238-.1.179-.184.359-.27.543-.114.24-.218.485-.315.733-.04.1-.087.2-.124.307a12.021 12.021 0 0 0 -.418 1.485c0 .015 0 .029-.007.044a12 12 0 0 0 -.22 1.517c-.027.328-.058.657-.058.989v4a2 2 0 0 0 2 2h4a11.953 11.953 0 0 0 1.849-.161l.075-.013a11.993 11.993 0 0 0 1.532-.355c.057-.017.115-.033.172-.052a11.961 11.961 0 0 0 2.216-.96l.225-.129a11.971 11.971 0 0 0 3.534-3.121l5.508-7.345-7.283-7.282c.041-.052.081-.107.123-.155z" fill="#1d7801"/><path d="m50 12h-4c-.332 0-.661.031-.989.058a11.751 11.751 0 0 0 -6.39 2.5l1.379 9.442-1 1c1.486 1.486.5 4.908-.948 6.582l1.8 1.526 6.312-4.733 1.036-.775a11.881 11.881 0 0 0 4.743-8.61c.027-.329.058-.657.058-.991v-3.999a2 2 0 0 0 -2.001-2z" fill="#1d7801"/><path d="m54.623 52.36-1.358-9.506a17.071 17.071 0 0 0 -9.265-12.854l-3.583 3.583-.563-.475-1.8-1.526c1.446-1.674 2.432-5.096.946-6.582l1-1-1.38-9.443a12 12 0 0 0 -2.22 2.243l-.815 1.087-1.585 2.113-3.109 4.145-3.015-3.565a7.949 7.949 0 0 0 -3.827-2.7 15.9 15.9 0 0 0 -4.643-.47 2 2 0 0 0 -2 2 15.843 15.843 0 0 0 .473 4.651 7.943 7.943 0 0 0 2.7 3.819l.157.132 5.211 4.41c-1.447 1.67-2.433 5.092-.947 6.578s4.908.5 6.582-.948l2 2.365-3.582 3.583a17.071 17.071 0 0 0 12.854 9.265l9.506 1.358a2 2 0 0 0 2.263-2.263z" fill="#359605"/><path d="m32 34a2 2 0 1 0 -1.828-2.806 2 2 0 0 0 1.828 2.806z" fill="#4ca50f"/><path d="m11 46v4a3 3 0 0 0 3 3h4a13.061 13.061 0 0 0 10.4-5.2l1.481-1.974a18.068 18.068 0 0 0 12.832 8.43l9.506 1.358a3.023 3.023 0 0 0 .433.031 3 3 0 0 0 2.961-3.425l-1.358-9.506a18.071 18.071 0 0 0 -8.43-12.832l1.975-1.482a13.061 13.061 0 0 0 5.2-10.4v-4a3 3 0 0 0 -3-3h-4a13.063 13.063 0 0 0 -10.4 5.2l-1.4 1.865a17.793 17.793 0 0 0 -14.91-9.576l-6.946-.331a4 4 0 0 0 -4.186 4.186l.331 6.945a17.793 17.793 0 0 0 9.575 14.911l-1.864 1.4a13.063 13.063 0 0 0 -5.2 10.4zm9.3-10.975 3.808-2.856.484.409a8.829 8.829 0 0 0 -1.192 2.961zm-9.813-15.831-.067-1.41 5.225-.725 1.062 1.062a2.972 2.972 0 0 0 -.243.715l-5.846 1.722c-.061-.451-.109-.905-.131-1.364zm-.331-6.945a2.007 2.007 0 0 1 .073-.606l3.642 3.642-3.547.492zm24.844 8.088.53 3.063a8.831 8.831 0 0 0 -2.952 1.192l-.409-.484zm7.124 2.957 1.235-1.235 6.457.894a11.148 11.148 0 0 1 -.8 1.328zm3.009-3.009 1.214-1.214 4.485.747a10.907 10.907 0 0 1 -.278 1.218zm2.952-2.952 2.915-2.919v3.406zm-1.414-1.414-.491-2.919h3.406zm-1.738 1.738-1.233 1.226-.785-5.419a10.779 10.779 0 0 1 1.264-.292zm-2.991 2.991-1.242 1.237-1-6.877a11.19 11.19 0 0 1 1.308-.8zm1.758 8.329-3.8 2.852-.483-.407a8.814 8.814 0 0 0 1.194-2.96zm5.232 6.276a16.12 16.12 0 0 1 1.439 2.135l-3.619 1.367a8.548 8.548 0 0 0 -1.471-2.222zm-22.05-2.375a2.968 2.968 0 0 1 2.118-.855 2.973 2.973 0 0 0 .317 1.3l-.026-.026-3 3 1.414 1.414 3-3-.026-.026a2.967 2.967 0 0 0 1.3.317 2.966 2.966 0 0 1 -.86 2.124c-1.331 1.329-4.412 2.174-5.415 1.171s-.156-4.089 1.174-5.419zm5.118.122a1 1 0 1 1 1-1 1 1 0 0 1 -1 1zm-.576 6.412.405.479-2.855 3.809-.513-3.1a8.835 8.835 0 0 0 2.963-1.188zm1.5-1.323a4.939 4.939 0 0 0 1.041-2.71l1.861 1.862-1.162 2.905zm5.9 2.152-1.29 3.226c-.215-.215-.429-.435-.648-.694l-.761-.9 1.239-3.095zm5.9-1.055a10.372 10.372 0 0 1 .891 5.02l-3.84-3.84zm-.523 6.434a10.372 10.372 0 0 1 -5.02-.891l1.18-2.949zm-7.491-.185a8.5 8.5 0 0 0 1.908 1.254l-1.489 3.528a16.051 16.051 0 0 1 -1.972-1.359zm3.814 1.884a14.591 14.591 0 0 0 2.429.276l-1.624 4.345a15.969 15.969 0 0 1 -2.407-.817zm4.572.258a2.956 2.956 0 0 0 .809-.253l1.017 1.017-.754 4.388-2.851-.407zm3.558 2.5 3.513 3.513-4.019-.574zm1.416-1.412 2.938-.5.573 4.011zm-1.734-1.734-1.012-1.021a2.945 2.945 0 0 0 .253-.814l4.741-1.8.412 2.889zm-.736-3.981a15.116 15.116 0 0 0 -.246-2.283l3.889-1.467a16.1 16.1 0 0 1 .69 2.1zm-4.128-5.414-3.226 1.29-1.461-1.46 3.095-1.239.9.761c.253.219.473.433.687.648zm-6.226-1.71-1.874-1.873a4.925 4.925 0 0 0 2.708-1.041l2.071 1.752zm-.119-4.7a2.957 2.957 0 0 1 -2.124.86 2.97 2.97 0 0 0 -.317-1.3l.026.026 3-3-1.414-1.414-3 3 .026.026a2.967 2.967 0 0 0 -1.3-.317 2.966 2.966 0 0 1 .86-2.124c1.331-1.33 4.41-2.175 5.415-1.171s.152 4.079-1.177 5.41zm-6.046-5.211a4.942 4.942 0 0 0 -1.041 2.71l-1.861-1.862 1.162-2.905zm-5.9-2.152 1.29-3.225c.215.213.429.433.648.692l.761.9-1.246 3.09zm-5.348-5.348a10.46 10.46 0 0 1 4.985.868l-1.184 2.937zm7.791.446a8.591 8.591 0 0 0 -2.273-1.547l1.676-4.284a15.912 15.912 0 0 1 2.107 1.634zm-4.188-2.161a15.246 15.246 0 0 0 -2.477-.265l1.709-5.38a15.724 15.724 0 0 1 2.592.985zm-7.006 4.232a15.066 15.066 0 0 0 .28 2.566l-4.51 2.102a15.8 15.8 0 0 1 -1.188-3.074zm1.981-1.106 3.809 3.808-2.941 1.177a10.46 10.46 0 0 1 -.868-4.985zm2.123 6.638 3.225-1.29 1.461 1.46-3.095 1.239-.9-.76c-.257-.219-.478-.434-.691-.649zm6.225 1.71 1.862 1.861a4.947 4.947 0 0 0 -2.71 1.041l-2.057-1.74zm-9.1 16.755-4.485-.747a10.949 10.949 0 0 1 .249-1.122l5.426.679zm-1.738 1.738-2.921 2.919v-3.406zm1.414 1.414.485 2.919h-3.406zm1.738-1.738 1.2-1.2.727 5.419a10.912 10.912 0 0 1 -1.178.266zm2.985-2.985 1.242-1.246 1.017 6.867a11.1 11.1 0 0 1 -1.4.854zm-1.417-1.411-6.495-.812a11.156 11.156 0 0 1 .724-1.248l6.975.856zm5.47 5.468-1.046-7.064.064-.064a4.016 4.016 0 0 0 1.321.4l.865 5.225-.515.688c-.215.286-.451.553-.691.815zm5.074-3.327 1.972-2.63 2.06 2.442-1.6 3.532a16.059 16.059 0 0 1 -2.434-3.344zm16.277-10.441-3.833 1.344-2.171-1.836 2.63-1.972a16.014 16.014 0 0 1 3.374 2.464zm-1.554-6.329-5.218-.869a4.046 4.046 0 0 0 -.392-1.333l.055-.055 7.1 1.017a10.947 10.947 0 0 1 -.853.722zm-8-10.75 1.034 7.08-.054.054a4.074 4.074 0 0 0 -1.339-.393l-.9-5.169.551-.74c.219-.293.459-.565.7-.832zm-7.06 5.972-1.7-2.012 1.523-4.234a15.663 15.663 0 0 1 2.184 3.574zm-10.148-11.899-1.849 5.821a2.974 2.974 0 0 0 -.73.245l-1.062-1.062.725-5.225 1.41.067c.506.024 1.006.081 1.506.154zm-4.923-.317-.492 3.547-3.647-3.647a1.859 1.859 0 0 1 .611-.068zm-2.547 17 4.11-1.917a8.666 8.666 0 0 0 1.55 2.239l-4.126 1.594a15.859 15.859 0 0 1 -1.534-1.912zm3.17 3.431 4.142-1.6 2 1.69-2.672 2a15.672 15.672 0 0 1 -3.47-2.09zm1 6.445.686-.514 5.225.865a4.039 4.039 0 0 0 .392 1.333l-.064.064-7.245-.889a10.746 10.746 0 0 1 1.006-.859z"/></svg>
